<?xml version="1.0" encoding="UTF-8" standalone="no"?>
<svg
   xmlns:dc="http://purl.org/dc/elements/1.1/"
   xmlns:cc="http://creativecommons.org/ns#"
   xmlns:rdf="http://www.w3.org/1999/02/22-rdf-syntax-ns#"
   xmlns:svg="http://www.w3.org/2000/svg"
   xmlns="http://www.w3.org/2000/svg"
   xmlns:sodipodi="http://sodipodi.sourceforge.net/DTD/sodipodi-0.dtd"
   xmlns:inkscape="http://www.inkscape.org/namespaces/inkscape"
   version="1.1"
   x="0px"
   y="0px"
   viewBox="0 0 89.998001 89.000999"
   enable-background="new 0 0 100 100"
   xml:space="preserve"
   id="svg8446"
   inkscape:version="0.91 r13725"
   sodipodi:docname="favicon.svg"
   width="89.998001"
   height="89.000999"><metadata
     id="metadata8458"><rdf:RDF><cc:Work
         rdf:about=""><dc:format>image/svg+xml</dc:format><dc:type
           rdf:resource="http://purl.org/dc/dcmitype/StillImage" /><dc:title /></cc:Work></rdf:RDF></metadata><defs
     id="defs8456" /><sodipodi:namedview
     pagecolor="#ffffff"
     bordercolor="#666666"
     borderopacity="1"
     objecttolerance="10"
     gridtolerance="10"
     guidetolerance="10"
     inkscape:pageopacity="0"
     inkscape:pageshadow="2"
     inkscape:window-width="1920"
     inkscape:window-height="1025"
     id="namedview8454"
     showgrid="false"
     inkscape:zoom="1.888"
     inkscape:cx="91.380417"
     inkscape:cy="62.5"
     inkscape:window-x="-3"
     inkscape:window-y="-3"
     inkscape:window-maximized="1"
     inkscape:current-layer="layer2" /><g
     inkscape:groupmode="layer"
     id="layer2"
     inkscape:label="bgc"
     style="display:none"><circle
       style="opacity:1;fill:#ffffff;fill-opacity:1;stroke:none;stroke-width:3.84699988;stroke-miterlimit:4;stroke-dasharray:none;stroke-opacity:1"
       id="path8092"
       cx="44.499989"
       cy="44.500999"
       r="44.5" /></g><g
     inkscape:groupmode="layer"
     id="layer1"
     inkscape:label="image"
     style="display:inline"><path
       d="m 45.048002,-2.0493164e-6 c 24.772,0 44.95,20.1780010493164 44.95,44.9500010493164 0,21.876 -15.583,39.956 -36.16,44.051 -0.4,-0.899 -0.899,-1.998 -1.099,-3.097 0.2,-1.099 0.3,-2.198 0.599,-3.097 0.999,-3.196 2.198,-6.393 3.396,-9.589 0.599,-1.798 2.198,-1.798 3.896,-1.598 2.597,0.2 5.394,0.599 7.991,0.3 3.996,-0.4 4.895,-2.098 4.795,-6.093 -0.1,-1.099 0.2,-2.697 0.899,-3.496 1.398,-1.398 0.899,-2.397 0,-3.596 0.2,0 0.499,-0.1 0.699,-0.1 0.1,-0.999 0.599,-2.098 0.4,-2.997 -0.4,-2.198 0,-2.997 2.198,-3.796 0.699,-0.2 1.299,-0.4 1.998,-0.799 1.798,-0.999 2.198,-2.098 1.099,-3.996 -1.798,-3.196 -3.896,-6.393 -5.694,-9.689 -0.599,-0.999 -0.4,-2.597 -0.4,-3.896 0,-1.398 0.699,-2.997 0.4,-4.395 -0.799,-2.797 -1.698,-5.594 -2.897,-8.191 -2.797,-6.293 -7.991,-10.089 -14.384,-11.7869995 C 50.442002,7.090998 42.751002,6.291998 35.459002,8.39 25.77,11.186999 15.182,19.676999 15.182,31.663999 c 0,3.996 0.899,8.291 2.597,11.887 4.895,10.388 5.794,15.183 3.097,26.271 0,0 0,0.999 -1.698,3.696 0,0 -1.798,2.098 -4.195,4.895 C 5.893,70.221999 0,58.234999 0,44.949999 0.098,20.177999 20.275,-2.0493164e-6 45.048002,-2.0493164e-6 Z M 57.035002,39.755999 l -1.398,-2.897 c -0.599,0 -1.099,0 -1.698,0 -0.599,-0.1 -1.099,-0.2 -1.598,-0.3 l -1.898,2.597 c -1.199,-0.499 -2.497,-0.999 -3.496,-1.898 l 1.099,-2.997 c -0.899,-0.799 -1.598,-1.598 -2.198,-2.597 l -3.196,0.599 c -0.599,-1.199 -0.899,-2.497 -1.199,-3.796 l 2.897,-1.398 c 0,-0.599 0,-1.099 0,-1.698 0.1,-0.599 0.2,-1.099 0.3,-1.598 l -2.597,-1.898 c 0.499,-1.199 0.999,-2.497 1.898,-3.496 l 2.997,1.099 c 0.799,-0.899 1.598,-1.598 2.597,-2.198 l -0.599,-3.196 c 1.199,-0.599 2.497,-0.899 3.796,-1.199 l 1.398,2.897 c 0.599,0 1.099,0 1.698,0 0.599,0.1 1.099,0.2 1.598,0.3 l 1.898,-2.597 c 1.199,0.499 2.497,0.999 3.496,1.898 l -1.099,2.997 c 0.899,0.799 1.598,1.598 2.198,2.597 l 3.196,-0.599 c 0.599,1.199 0.899,2.497 1.199,3.796 l -2.897,1.398 c 0,0.599 0,1.099 0,1.698 -0.1,0.599 -0.2,1.099 -0.3,1.598 l 2.597,1.898 c -0.499,1.199 -0.999,2.497 -1.898,3.496 l -2.997,-1.099 c -0.799,0.899 -1.598,1.598 -2.597,2.198 l 0.599,3.097 c -1.099,0.699 -2.498,1.098 -3.796,1.298 z m 4.395,-12.786 c 0.3,-3.496 -2.297,-6.693 -5.893,-6.992 -3.496,-0.3 -6.693,2.297 -6.992,5.893 -0.3,3.496 2.297,6.693 5.893,6.992 3.496,0.201 6.592,-2.396 6.992,-5.893 z m -14.384,8.791 -3.296,3.596 c 0.1,0.3 0.2,0.499 0.3,0.799 0.1,0.3 0.2,0.599 0.2,0.899 l 4.695,1.099 c 0.1,1.299 -0.1,2.597 -0.499,3.996 l -4.895,0.1 c -0.2,0.499 -0.499,0.999 -0.799,1.398 l 2.497,4.195 c -0.899,0.899 -1.898,1.798 -3.097,2.497 l -3.596,-3.296 c -0.3,0.1 -0.499,0.2 -0.799,0.3 -0.3,0.1 -0.599,0.2 -0.899,0.2 l -1.199,4.695 c -1.299002,0.1 -2.597002,-0.1 -3.996002,-0.499 l -0.1,-4.895 c -0.499,-0.2 -0.999,-0.499 -1.398,-0.799 l -4.195,2.497 c -0.899,-0.899 -1.798,-1.898 -2.497,-3.097 l 3.496,-3.596 c -0.1,-0.3 -0.2,-0.499 -0.3,-0.799 -0.1,-0.3 -0.2,-0.599 -0.2,-0.899 l -4.695,-1.199 c -0.1,-1.299 0.1,-2.597 0.499,-3.996 l 4.895,-0.1 c 0.2,-0.499 0.499,-0.999 0.799,-1.398 l -2.497,-4.195 c 0.899,-0.899 1.898,-1.798 3.097,-2.497 l 3.596,3.296 c 0.3,-0.1 0.499,-0.2 0.799,-0.3 0.3,-0.1 0.599,-0.2 0.899,-0.2 l 1.199002,-4.695 c 1.299,-0.1 2.597,0.1 3.996,0.499 l 0,5.094 c 0.499,0.2 0.999,0.499 1.398,0.799 l 4.195,-2.497 c 0.898,0.8 1.698,1.899 2.397,2.998 z m -6.593,5.294 c -0.899,-2.797 -3.796,-4.395 -6.493002,-3.596 -2.797,0.899 -4.395,3.796 -3.596,6.493 0.899,2.797 3.796,4.395 6.493002,3.596 2.697,-0.7 4.295,-3.696 3.596,-6.493 z m 0,-22.176 c 0.2,0.799 0.3,1.598 0.3,2.497 l -2.897,0.799 c 0,0.2 -0.1,0.4 -0.1,0.499 -0.1,0.2 -0.1,0.4 -0.2,0.499 l 2.098,2.297 c -0.499,0.799 -0.899,1.398 -1.598,1.998 l -2.597,-1.598 c -0.3,0.2 -0.599,0.4 -0.899,0.499 l -0.100002,2.997 c -0.799,0.2 -1.598,0.3 -2.497,0.3 l -0.799,-2.897 c -0.2,0 -0.4,-0.1 -0.499,-0.1 -0.2,-0.1 -0.4,-0.1 -0.499,-0.2 l -2.297,2.098 c -0.799,-0.499 -1.398,-0.899 -1.998,-1.598 l 1.598,-2.597 c -0.2,-0.3 -0.4,-0.599 -0.499,-0.899 l -2.997,-0.1 c -0.2,-0.799 -0.3,-1.598 -0.3,-2.497 l 2.897,-0.699 c 0,-0.2 0.1,-0.4 0.1,-0.499 0.1,-0.2 0.1,-0.4 0.2,-0.499 l -2.098,-2.297 c 0.499,-0.799 0.899,-1.398 1.598,-1.998 l 2.597,1.598 c 0.3,-0.2 0.599,-0.4 0.899,-0.499 l 0.1,-2.997 c 0.799,-0.2 1.598,-0.3 2.497,-0.3 l 0.799,2.897 c 0.2,0 0.4,0.1 0.499,0.1 0.2,0.1 0.4,0.1 0.499,0.2 l 2.198002,-2.098 c 0.799,0.499 1.398,0.899 1.998,1.598 l -1.598,2.597 c 0.2,0.3 0.4,0.599 0.499,0.899 l 3.096,0 z m -7.292002,-1.098 c -1.798,-0.499 -3.596,0.499 -4.095,2.297 -0.499,1.798 0.499,3.596 2.297,4.095 1.798,0.499 3.596002,-0.499 4.095002,-2.297 0.4,-1.698 -0.599,-3.596 -2.297002,-4.095 z"
       id="path8448"
       inkscape:connector-curvature="0"
       style="fill:#000000;fill-opacity:1;stroke:none;stroke-opacity:1" /></g></svg>